# xmcd
#
# Track frame offsets:
#	150
#	29100
#	47353
#	67816
#	94286
#	109146
#	128900
#	137447
#	163228
#	180156
#	199267
#	218917
#	235439
#	248055
#	261640
#
# Disc length: 3732
#
# Revision: 2
# Processed by: cddbd v1.5.1PL0 Copyright (c) Steve Scherf et al.
# Submitted via: CDex 1.50
# Normalized: r1:TDELIM( - )
#
DISCID=dc0e920f
DTITLE=Various Artist - Chilled Out
DYEAR=1900
DGENRE=New Age
TTITLE0=Dubstar - Stars (Mother Dub)
TTITLE1=Everything But The Girl - Walking Wounded
TTITLE2=Japan - Ghosts
TTITLE3=Craig Armstrong - Weather Storm
TTITLE4=Sheila Chandra - Ever So Lonely - Eyes - Ocean
TTITLE5=Adiemus - Salm 'O Dewi Sant'
TTITLE6=The Medieval Babes - Alba
TTITLE7=Sarmilla Roy - Svetasvatera Upanisad
TTITLE8=Sacred Spirit - Tor-Cheney-Nahana (Winter Ceremony)
TTITLE9=Ennio Morricone - Cockey's Song
TTITLE10=Brian Eno - Under Stars
TTITLE11=Tangerine Dream - The Dream Is Always The Same
TTITLE12=Matt Malloy - Chinese Lake Reflections
TTITLE13=Harold Budd and Brian Eno - The Pearl
TTITLE14=Thomas Newman - Any Other Name (From 'American Beauty')
EXTD=
EXTT0=
EXTT1=
EXTT2=
EXTT3=
EXTT4=
EXTT5=
EXTT6=
EXTT7=
EXTT8=
EXTT9=
EXTT10=
EXTT11=
EXTT12=
EXTT13=
EXTT14=
PLAYORDER=
